PathFileType	4	(X/Y/Z)	C:\Users\86182\Documents\cortex\Trimmed_M3_L1.trc
DataRate	CameraRate	NumFrames	NumMarkers	Units	OrigDataRate	OrigDataStartFrame	OrigNumFrames
100.00	100.00	       141	2	mm	100.00	181	       901
Frame#	Time	gripper			box			
		X1	Y1	Z1	X2	Y2	Z2	

181	1.800	274.40427	148.98079	207.98592	277.66492	147.19167	72.20973	
182	1.810	274.87363	148.89302	208.52878	277.66052	147.21365	72.60685	
183	1.820	274.80112	148.96416	209.08342	277.48511	147.30409	73.16352	
184	1.830	274.58151	149.02892	209.40535	277.25046	147.26175	73.58234	
185	1.840	274.34280	149.03688	209.81645	277.41650	147.16075	73.84508	
186	1.850	274.47906	148.95465	210.25214	277.50037	147.33066	74.36229	
187	1.860	274.43991	149.03894	210.53062	277.57288	147.32910	74.80953	
188	1.870	274.32101	149.09427	211.04971	277.28485	147.29330	75.43554	
189	1.880	274.42126	149.05772	211.51662	277.09161	147.32516	75.69445	
190	1.890	274.34189	149.05003	211.95622	277.14841	147.28729	75.83845	
191	1.900	274.51807	148.96196	212.22203	276.98560	147.35304	76.20073	
192	1.910	274.38681	149.10876	212.54568	277.26883	147.34979	76.81210	
193	1.920	274.45340	149.18358	213.10355	277.21921	147.25572	77.35681	
194	1.930	274.32156	149.06953	213.68576	277.23364	147.32388	77.84430	
195	1.940	274.51239	148.98613	214.00800	277.37259	147.27083	78.00404	
196	1.950	274.66537	148.93517	214.23576	277.37015	147.13109	78.32897	
197	1.960	274.88611	148.85089	214.80273	277.45621	147.17101	78.75742	
198	1.970	274.84964	148.91617	215.23355	277.45667	147.25761	79.40366	
199	1.980	274.43591	149.04953	215.75403	277.36481	147.06116	80.00378	
200	1.990	274.70258	148.89157	216.23947	277.52512	147.16626	80.33379	
201	2.000	275.31805	148.67358	216.45895	277.62686	147.26071	80.51489	
202	2.010	275.21396	148.86104	216.74371	277.39856	147.24780	80.91343	
203	2.020	275.03018	148.85532	217.12852	277.29276	147.14441	81.55167	
204	2.030	274.48514	149.06075	217.98056	277.33115	147.16391	82.01703	
205	2.040	274.66574	148.98799	218.29524	277.38184	147.31277	82.33765	
206	2.050	274.44366	148.89157	218.64967	277.48825	147.34787	82.74223	
207	2.060	274.42618	148.94180	219.00369	277.30362	147.21246	83.01406	
208	2.070	274.12054	148.93964	219.60048	276.23273	146.59358	83.67962	
209	2.080	274.09570	148.91370	219.97380	276.94672	147.27440	83.90796	
210	2.090	273.99835	148.94629	220.34660	277.07870	147.05937	84.26538	
211	2.100	274.02618	148.76749	220.81158	276.88821	147.08250	84.84306	
212	2.110	274.02036	148.81384	221.30498	277.03278	147.01793	85.36815	
213	2.120	274.13708	148.83517	221.53592	276.84720	146.96541	85.71348	
214	2.130	274.08081	148.73018	221.97130	276.70728	146.89357	86.06095	
215	2.140	274.05667	148.86482	222.58517	276.84055	146.97179	86.42081	
216	2.150	274.14288	148.98154	223.12437	277.11163	147.05717	86.91940	
217	2.160	273.99316	148.85316	223.50490	277.00278	147.09453	87.60708	
218	2.170	274.23120	148.71466	223.77895	276.68494	146.96933	88.11724	
219	2.180	274.16708	148.95558	224.36955	276.87573	146.95042	88.27192	
220	2.190	274.10129	149.03496	224.79245	276.99176	147.17299	88.64062	
221	2.200	273.93118	148.94968	225.27705	277.04309	147.10358	89.09335	
222	2.210	274.25787	148.88760	225.68762	276.92932	146.99727	89.78291	
223	2.220	274.50131	148.89545	225.91254	276.74905	147.07912	90.18288	
224	2.230	274.21005	148.98923	226.42192	276.99954	147.01105	90.43597	
225	2.240	274.11618	148.97141	226.75681	277.17514	147.00710	90.64967	
226	2.250	274.02185	149.02831	227.34000	276.86771	147.05310	91.12318	
227	2.260	274.26617	148.89720	227.58102	276.81140	147.00847	91.60490	
228	2.270	274.25101	148.89398	228.11383	276.73077	147.04564	92.22152	
229	2.280	274.11319	149.00366	228.52380	276.92731	147.10092	92.57058	
230	2.290	273.98871	149.06203	229.05963	277.09851	146.97945	92.88033	
231	2.300	274.05511	148.99959	229.40411	276.88232	147.00653	93.26658	
232	2.310	274.39215	148.94270	229.74231	276.78201	147.03023	93.65186	
233	2.320	274.14496	149.07974	230.30975	276.72449	147.12128	94.36436	
234	2.330	273.97549	149.08424	230.87784	277.01227	147.13113	94.79627	
235	2.340	274.00708	149.15718	231.24860	276.85913	147.13332	95.14126	
236	2.350	274.23511	149.14751	231.56473	276.77328	147.14838	95.53127	
237	2.360	274.06061	149.12372	232.12103	276.63403	147.26958	96.15003	
238	2.370	273.99991	149.14130	232.55305	276.53415	147.24237	96.43864	
239	2.380	273.82822	149.22765	232.93958	276.66934	147.21863	96.72387	
240	2.390	274.11536	149.18616	233.30338	276.74197	147.34711	97.21738	
241	2.400	273.89548	149.17503	233.77917	276.54144	147.39043	97.73877	
242	2.410	273.91678	149.18895	234.11778	276.38110	147.32893	98.21719	
243	2.420	273.91647	149.26540	234.49365	276.42935	147.28392	98.53598	
244	2.430	273.89487	149.26933	235.09871	276.39291	147.39699	98.76688	
245	2.440	273.88394	149.33594	235.38367	276.55103	147.36064	99.14949	
246	2.450	273.87457	149.25783	235.70374	276.45682	147.47816	99.98720	
247	2.460	274.01575	149.23848	236.22882	276.23218	147.43423	100.30167	
248	2.470	273.90585	149.22754	236.70705	276.45349	147.33147	100.58544	
249	2.480	274.00540	149.38429	237.14619	276.63654	147.32472	100.98018	
250	2.490	273.88922	149.35854	237.59158	276.68878	147.35329	101.32876	
251	2.500	274.01843	149.26668	238.00716	276.53964	147.56190	102.04886	
252	2.510	274.13797	149.28856	238.49220	276.40823	147.58904	102.54095	
253	2.520	274.10666	149.39668	238.90465	276.76648	147.44482	102.97054	
254	2.530	273.96765	149.38669	239.56337	276.78067	147.40843	103.29865	
255	2.540	274.14325	149.39882	239.83351	276.61533	147.56569	103.67587	
256	2.550	274.11316	149.32829	240.19203	276.60950	147.64549	104.28039	
257	2.560	274.15543	149.48376	240.77917	276.63776	147.58102	104.92733	
258	2.570	273.91541	149.52115	241.23547	276.48575	147.59167	105.10641	
259	2.580	273.98474	149.58157	241.56615	276.45764	147.72145	105.39516	
260	2.590	273.98993	149.39064	241.87871	276.40918	147.83559	105.87698	
261	2.600	274.10986	149.46246	242.33321	276.19867	147.65930	106.45012	
262	2.610	274.03470	149.38168	242.72896	276.27966	147.70175	106.91610	
263	2.620	273.93777	149.43521	243.19701	276.37296	147.71883	107.21607	
264	2.630	273.88803	149.58597	243.60121	276.21573	147.79205	107.46199	
265	2.640	273.91248	149.60178	244.12090	276.15881	147.75017	108.16391	
266	2.650	273.91544	149.44972	244.46115	275.90350	147.86185	108.54865	
267	2.660	273.81451	149.40802	244.71416	276.14160	147.78320	108.77792	
268	2.670	274.10678	149.43427	245.34947	276.24902	147.74263	109.23669	
269	2.680	273.96152	149.50873	245.91400	276.39896	147.65276	109.75019	
270	2.690	273.81686	149.52257	246.25235	276.42657	147.74809	110.16875	
271	2.700	274.12680	149.56235	246.46063	276.29666	147.82217	110.65160	
272	2.710	274.11584	149.43246	247.06081	276.31146	147.69991	110.92497	
273	2.720	274.20966	149.37964	247.57626	276.61664	147.69710	111.56805	
274	2.730	273.91824	149.45720	247.92912	276.84067	147.72083	111.85003	
275	2.740	273.83823	149.41574	248.39499	276.52832	147.73363	112.26267	
276	2.750	273.73941	149.41611	248.87619	276.16693	147.78423	112.90934	
277	2.760	273.96942	149.25845	249.10318	276.34473	147.73053	113.14064	
278	2.770	273.80081	149.26656	249.63217	276.43121	147.73090	113.42520	
279	2.780	273.81146	149.30426	250.16357	276.54208	147.80089	113.86575	
280	2.790	273.85806	149.42963	250.51366	276.38269	147.68713	114.36023	
281	2.800	273.61331	149.36623	250.78548	276.20853	147.77893	114.98121	
282	2.810	273.44693	149.25340	251.17754	276.06033	147.89854	115.29576	
283	2.820	273.65509	149.18442	251.69348	276.22763	147.87875	115.54492	
284	2.830	273.76266	149.32767	252.22726	275.98267	147.77054	115.89637	
285	2.840	273.56396	149.34753	252.57274	275.95926	147.73866	116.51478	
286	2.850	273.48279	149.22398	252.94395	276.11578	147.73033	117.02737	
287	2.860	273.57257	149.28523	253.36375	276.10883	147.75784	117.37877	
288	2.870	273.52640	149.32179	253.80197	275.95633	147.78149	117.69678	
289	2.880	273.54086	149.32558	254.36560	275.93881	147.67841	118.15298	
290	2.890	273.71524	149.29863	254.87334	275.96051	147.64278	118.51981	
291	2.900	273.58008	149.26984	255.20461	276.08511	147.72997	119.10690	
292	2.910	273.59735	149.26376	255.50839	276.04599	147.75946	119.67652	
293	2.920	273.52289	149.36995	255.94745	276.12726	147.84995	119.95661	
294	2.930	273.69812	149.41635	256.62402	275.88434	147.71017	120.33161	
295	2.940	273.76730	149.29123	256.88455	275.84674	147.68425	120.80503	
296	2.950	273.83707	149.26814	257.33469	275.93298	147.76833	121.39611	
297	2.960	273.78189	149.34148	257.71512	275.92612	147.79115	121.73006	
298	2.970	273.55157	149.41437	258.16898	275.96445	147.79059	122.16405	
299	2.980	273.57892	149.44354	258.65503	275.83536	147.81516	122.60433	
300	2.990	273.61212	149.47804	259.05121	275.73840	147.87299	122.92960	
301	3.000	273.71436	149.29045	259.48373	275.69714	147.79140	123.31877	
302	3.010	273.59106	149.35152	259.84448	275.73349	147.72324	123.76688	
303	3.020	273.56833	149.37401	260.11536	275.62714	147.79175	124.17878	
304	3.030	273.58261	149.54321	260.64084	275.80161	147.77359	124.70551	
305	3.040	273.61829	149.43579	261.18500	275.43390	147.75681	125.21215	
306	3.050	273.72662	149.34027	261.47266	275.47336	147.76164	125.47632	
307	3.060	273.78732	149.39146	261.87601	275.67252	147.67894	125.84325	
308	3.070	273.62579	149.45300	262.46646	275.73035	147.77014	126.43790	
309	3.080	273.58008	149.48291	262.80688	275.80966	147.85564	126.94299	
310	3.090	273.72513	149.45006	263.24713	275.52625	147.75607	127.40450	
311	3.100	273.62341	149.49680	263.73428	275.57407	147.76614	127.63801	
312	3.110	273.87509	149.39761	264.11493	275.78149	147.72981	127.86100	
313	3.120	273.73380	149.46840	264.50629	275.80240	147.76685	128.65189	
314	3.130	273.73569	149.51627	265.04340	275.61099	147.88188	129.22798	
315	3.140	273.80655	149.56802	265.59836	275.58624	147.88461	129.50029	
316	3.150	273.76196	149.53632	265.87021	275.79724	147.81277	129.85594	
317	3.160	273.68350	149.54678	266.24597	275.87213	147.70071	130.10664	
318	3.170	273.74576	149.44629	266.76324	275.51627	147.80721	130.69370	
319	3.180	273.68869	149.52757	267.15207	275.34082	147.85196	131.12242	
320	3.190	273.75690	149.60364	267.54367	275.61551	147.97064	131.67758	
321	3.200	273.84332	149.58893	267.96152	275.67365	147.79672	131.99103	
